# xmcd
#
# Track frame offsets: 
#        150
#        12008
#        25281
#        37636
#        48746
#        61741
#        74306
#        86483
#        96357
#        109612
#        123290
#        136292
#        149100
#        159584
#        172313
#        183356
#        193978
#        208778
#        219024
#        232860
#
# Disc length: 3246 seconds
#
# Revision: 1
# Processed by: cddbd v1.5.2PL0 Copyright (c) Steve Scherf et al.
# Submitted via: ExactAudioCopyFreeDBPlugin 1.0
#
DISCID=190cac14
DTITLE=Various Artist - Twenty Shots in the Dark:  Nashville's Jukebo
DTITLE=x, 1945-1955  [companion CD to book]
DYEAR=2006
DGENRE=Country
TTITLE0=Brad Brady and His Tennesseans - Zeb's Mountain Boogie
TTITLE1=Cecil Gant - Nashville Jumps
TTITLE2=Minnie Pearl - Jealous Hearted Me (with Pee Wee King and the G
TTITLE2=olden West Cowboys)
TTITLE3=The John Daniel Quartet - Headin' for the Pearly Gates
TTITLE4=Francis Craig and His Orchestra - Near You  (Bob Lamm, vocals)
TTITLE5=The Fairfield Four - Standing in the Safety Zone
TTITLE6=Leon Payne - Lost Highway
TTITLE7=Don Q and his Orchestra - Tom, Tom, the Piper's Son (Jimmy Bro
TTITLE7=wn, vocals)
TTITLE8=Dottie Dillard with the Owen Bradley Orchestra - Save That Con
TTITLE8=federate Money Boys
TTITLE9=Big Jeff and the Radio Playboys - After We Are Through
TTITLE10=Johnnie Lee Wills and His Boys - Rag Mop
TTITLE11=Jimmy Sweeney - Boogie Woogie Jockey
TTITLE12=Dick Stratton and the Nite Owls - Music City USA
TTITLE13=Wally Fowler and His Oak Ridge Quartet - I'm a Bible Lovin' M
TTITLE13=an
TTITLE14=Del Wood - Down Yonder
TTITLE15=Randy Hughes - Birthday Cake
TTITLE16=Chirstine Kittrell - The Price You Pay For Love
TTITLE17=Allen Flatt - That's What She Wrote (with string band)
TTITLE18=Lucile Barbee - Little More Faith and Grace
TTITLE19=Bernard Hardison - Too Much
EXTD=
EXTT0=
EXTT1=
EXTT2=
EXTT3=
EXTT4=
EXTT5=
EXTT6=
EXTT7=
EXTT8=
EXTT9=
EXTT10=
EXTT11=
EXTT12=
EXTT13=
EXTT14=
EXTT15=
EXTT16=
EXTT17=
EXTT18=
EXTT19=
PLAYORDER=
